<svg xmlns="http://www.w3.org/2000/svg" viewBox="0 0 512 512" role="img" aria-label="Santa Biblia RVR60">
  <defs>
    <linearGradient id="bg" x1="0" y1="0" x2="1" y2="1">
      <stop offset="0%" stop-color="#f6efe2"/>
      <stop offset="100%" stop-color="#dcc4a0"/>
    </linearGradient>
    <linearGradient id="cover" x1="0" y1="0" x2="0.9" y2="1">
      <stop offset="0%" stop-color="#7a5a34"/>
      <stop offset="100%" stop-color="#4f3920"/>
    </linearGradient>
    <linearGradient id="spine" x1="0" y1="0" x2="0" y2="1">
      <stop offset="0%" stop-color="#c49d63"/>
      <stop offset="100%" stop-color="#a37d48"/>
    </linearGradient>
    <filter id="shadow" x="-20%" y="-20%" width="140%" height="140%">
      <feDropShadow dx="0" dy="12" stdDeviation="14" flood-opacity="0.25"/>
    </filter>
  </defs>

  <rect width="512" height="512" rx="118" fill="url(#bg)"/>

  <g filter="url(#shadow)">
    <path d="M123 116h242c23 0 42 19 42 42v197c0 26-21 47-47 47H123z" fill="url(#cover)"/>
    <path d="M98 116h44v286H98c-17 0-31-14-31-31V147c0-17 14-31 31-31z" fill="url(#spine)"/>
    <path d="M142 116h9v286h-9z" fill="#ead8bb" opacity=".85"/>
    <path d="M143 138h220c14 0 25 11 25 25v177c0 24-19 43-43 43H143z" fill="#fff" opacity=".12"/>
  </g>

  <g fill="#f8efe1">
    <rect x="235" y="180" width="42" height="150" rx="8"/>
    <rect x="189" y="233" width="134" height="42" rx="8"/>
  </g>

  <g fill="#f2dfc3" opacity=".75">
    <rect x="172" y="365" width="210" height="10" rx="5"/>
    <rect x="172" y="385" width="182" height="10" rx="5"/>
  </g>
</svg>
